Coordinates
version=1
nRows=18
nColumns=38
inDegrees=no

Units are S.I. units (second, meters, Newtons, ...)
If the header above contains a line with 'inDegrees', this indicates whether rotational values are in degrees (yes) or radians (no).

endheader
time	pelvis_tilt	pelvis_list	pelvis_rotation	pelvis_tx	pelvis_ty	pelvis_tz	hip_flexion_r	hip_adduction_r	hip_rotation_r	knee_angle_r	ankle_angle_r	subtalar_angle_r	mtp_angle_r	hip_flexion_l	hip_adduction_l	hip_rotation_l	knee_angle_l	ankle_angle_l	subtalar_angle_l	mtp_angle_l	lumbar_extension	lumbar_bending	lumbar_rotation	arm_flex_r	arm_add_r	arm_rot_r	elbow_flex_r	pro_sup_r	wrist_flex_r	wrist_dev_r	arm_flex_l	arm_add_l	arm_rot_l	elbow_flex_l	pro_sup_l	wrist_flex_l	wrist_dev_l
0.97	0.372133	1.28639	-1.92381	0.760126	0.0860848	0.944744	0.323721	-0.226767	0.0541586	1.39051	0.0665331	0	0	-0.196248	0.178725	-0.259419	0.232546	0.0524538	0	0	-0.242616	-0.0906755	0.0171165	0.277245	-0.142666	-0.52113	1.60498	0	0	0	0.375379	-0.356819	0.146575	1.62597	0	0	0
0.98	0.359129	1.28536	-1.90307	0.761963	0.0763549	0.946043	0.335171	-0.221207	0.0466849	1.36017	0.0794648	0	0	-0.214371	0.176562	-0.248488	0.225505	0.0521814	0	0	-0.261921	-0.0784724	-0.00299217	0.287934	-0.140998	-0.508846	1.62912	0	0	0	0.360703	-0.363801	0.121039	1.65733	0	0	0
0.99	0.373182	1.30616	-1.90478	0.76308	0.0658677	0.946922	0.366669	-0.212377	0.0383867	1.32246	0.0873932	0	0	-0.203733	0.17087	-0.233457	0.225191	0.0499623	0	0	-0.230332	-0.0864391	-0.0325613	0.285949	-0.118638	-0.509894	1.58783	0	0	0	0.342355	-0.3736	0.109308	1.66398	0	0	0
1	0.350945	1.31189	-1.87566	0.765259	0.0559897	0.947969	0.377834	-0.203298	0.0286474	1.27982	0.0934289	0	0	-0.21368	0.164429	-0.223411	0.22084	0.0510088	0	0	-0.214819	-0.0847471	-0.0232273	0.278717	-0.123863	-0.529482	1.56525	0	0	0	0.366075	-0.363221	0.143903	1.62686	0	0	0
1.01	0.330723	1.31409	-1.84879	0.767074	0.0462432	0.948717	0.383873	-0.19656	0.0176771	1.23415	0.0988349	0	0	-0.22636	0.159081	-0.214226	0.217693	0.0546103	0	0	-0.217514	-0.076783	-0.0298544	0.282007	-0.124979	-0.532147	1.56729	0	0	0	0.368769	-0.363198	0.146075	1.62677	0	0	0
1.02	0.279786	1.29309	-1.79717	0.769682	0.0373984	0.949599	0.363496	-0.191444	0.00398032	1.18724	0.107797	0	0	-0.269065	0.15511	-0.210712	0.207624	0.0619728	0	0	-0.261827	-0.0497432	-0.0145296	0.292743	-0.151684	-0.529089	1.61889	0	0	0	0.39004	-0.353219	0.155001	1.62597	0	0	0
1.03	0.288551	1.31762	-1.79548	0.770429	0.0266703	0.949761	0.386867	-0.184055	-0.00959469	1.12952	0.109395	0	0	-0.254579	0.148617	-0.195712	0.207771	0.0620524	0	0	-0.222692	-0.0611076	-0.0404514	0.28901	-0.127898	-0.534789	1.56862	0	0	0	0.375027	-0.3621	0.150135	1.62594	0	0	0
1.04	0.240319	1.29634	-1.74791	0.772854	0.017801	0.95039	0.360907	-0.178276	-0.0273365	1.07348	0.118482	0	0	-0.299024	0.144636	-0.192188	0.194388	0.0681199	0	0	-0.266148	-0.0341981	-0.0230426	0.299748	-0.15477	-0.5299	1.61896	0	0	0	0.396607	-0.350981	0.158352	1.62425	0	0	0
1.05	0.22263	1.29842	-1.72631	0.774289	0.00802789	0.950436	0.356734	-0.172208	-0.0462648	1.0104	0.12408	0	0	-0.314029	0.139944	-0.184376	0.186617	0.0719034	0	0	-0.267491	-0.0273581	-0.0263438	0.30366	-0.155708	-0.531259	1.61841	0	0	0	0.400121	-0.349467	0.159595	1.62303	0	0	0
1.06	0.233076	1.32244	-1.72875	0.774645	-0.0026509	0.94994	0.372181	-0.1676	-0.0662933	0.939374	0.126789	0	0	-0.301554	0.135537	-0.171839	0.184301	0.0740977	0	0	-0.229348	-0.0411873	-0.0500875	0.301052	-0.131749	-0.537316	1.56842	0	0	0	0.386556	-0.357726	0.154447	1.6222	0	0	0
1.07	0.19371	1.30149	-1.69184	0.776571	-0.0116372	0.949853	0.339783	-0.163181	-0.0952331	0.869607	0.133295	0	0	-0.346641	0.13235	-0.170511	0.168347	0.0824787	0	0	-0.271516	-0.0165445	-0.0294689	0.31198	-0.158147	-0.534226	1.61737	0	0	0	0.409391	-0.346251	0.163016	1.61989	0	0	0
1.08	0.183111	1.30469	-1.67915	0.777357	-0.021608	0.949075	0.330015	-0.159113	-0.126119	0.793994	0.13327	0	0	-0.36103	0.1289	-0.164662	0.159312	0.0890438	0	0	-0.271021	-0.0131631	-0.0304647	0.315783	-0.158189	-0.53603	1.6148	0	0	0	0.413914	-0.344974	0.164565	1.61734	0	0	0
1.09	0.201465	1.33128	-1.69101	0.77707	-0.0325376	0.947626	0.341993	-0.156607	-0.158729	0.712789	0.130382	0	0	-0.345677	0.12611	-0.154015	0.157184	0.0925446	0	0	-0.228809	-0.0313651	-0.0541482	0.312976	-0.131274	-0.542713	1.56162	0	0	0	0.3995	-0.354336	0.158156	1.61571	0	0	0
1.1	0.170176	1.31249	-1.66448	0.778235	-0.0418434	0.946618	0.306899	-0.150379	-0.198095	0.636521	0.133714	0	0	-0.388597	0.124089	-0.15756	0.140196	0.10033	0	0	-0.267756	-0.00985973	-0.0298794	0.32279	-0.157265	-0.540335	1.61024	0	0	0	0.423069	-0.343315	0.167733	1.61287	0	0	0
1.11	0.200244	1.3422	-1.69019	0.777287	-0.0530229	0.944429	0.320155	-0.145967	-0.230736	0.554527	0.123776	0	0	-0.369395	0.123692	-0.150921	0.138594	0.104146	0	0	-0.220679	-0.0326098	-0.051983	0.318771	-0.129354	-0.546637	1.55423	0	0	0	0.408328	-0.354123	0.161822	1.61067	0	0	0
1.12	0.203316	1.34872	-1.69442	0.777019	-0.0634368	0.94243	0.308181	-0.137071	-0.264586	0.475961	0.118781	0	0	-0.380306	0.122956	-0.150757	0.129497	0.110662	0	0	-0.214667	-0.0346061	-0.0504475	0.321536	-0.12776	-0.547818	1.54819	0	0	0	0.411864	-0.35413	0.161883	1.60785	0	0	0
1.13	0.210386	1.35601	-1.70338	0.776544	-0.0739558	0.940121	0.29693	-0.126146	-0.29374	0.402203	0.118445	0	0	-0.390245	0.123051	-0.151243	0.120773	0.117225	0	0	-0.207462	-0.0376931	-0.0483368	0.32383	-0.126144	-0.548434	1.54242	0	0	0	0.415371	-0.354811	0.162273	1.60475	0	0	0
1.14	0.219813	1.36381	-1.71503	0.775929	-0.08458	0.937577	0.285893	-0.112729	-0.315591	0.333568	0.113957	0	0	-0.399091	0.123179	-0.152329	0.113378	0.124776	0	0	-0.199286	-0.0412894	-0.0462103	0.326146	-0.124638	-0.548523	1.53596	0	0	0	0.418381	-0.355298	0.16129	1.60143	0	0	0
